# xmcd
#
# Track frame offsets: 
#        150
#        24786
#        40728
#        64615
#        83017
#        99029
#        112705
#        134813
#        144536
#        169329
#        185541
#        210198
#
# Disc length: 3200 seconds
#
# Revision: 0
# Processed by: cddbd v1.5.2PL0 Copyright (c) Steve Scherf et al.
# Submitted via: ExactAudioCopy v0.99pb4
#
DISCID=900c7e0c
DTITLE=Takenobu - Introduction
DYEAR=2007
DGENRE=Bluegrass
TTITLE0=Deeper then the Vine
TTITLE1=To the Stars
TTITLE2=Time For Some
TTITLE3=Shady Grove
TTITLE4=Beggars Can't Be Choosers
TTITLE5=Accomplice
TTITLE6=Neverland
TTITLE7=Fishin'
TTITLE8=Pretty Fix
TTITLE9=Thursday
TTITLE10=Low Integrity
TTITLE11=Watersong
EXTD=
EXTT0=
EXTT1=
EXTT2=
EXTT3=
EXTT4=
EXTT5=
EXTT6=
EXTT7=
EXTT8=
EXTT9=
EXTT10=
EXTT11=
PLAYORDER=
